<?xml version="1.0" encoding="UTF-8"?>
<svg version="1.1" xmlns="http://www.w3.org/2000/svg" width="512" height="512">
<path d="M0 0 C0.8146875 0.37382812 1.629375 0.74765625 2.46875 1.1328125 C8.36315011 4.09966056 14.5021129 8.2766001 17.0378418 14.57983398 C18.90572683 17.4395473 18.90572683 17.4395473 22.94897461 17.59594727 C24.60006671 17.61005898 26.25150388 17.59853124 27.90234375 17.56640625 C28.77645401 17.57204086 29.65056427 17.57767548 30.55116272 17.58348083 C33.34715127 17.59996332 36.14156568 17.58436388 38.9375 17.5625 C41.72971772 17.54591257 44.52089199 17.53680396 47.31312561 17.55223083 C49.05046407 17.56151821 50.78802221 17.5523212 52.52513123 17.52259827 C56.17399078 17.53911672 58.38706344 17.63503873 61.56469727 19.52709961 C63.66724307 23.14960113 63.27667259 25.84991116 63 30 C63.62845825 29.99111755 64.2569165 29.98223511 64.90441895 29.9730835 C71.5245644 29.88367048 78.14453473 29.82388167 84.76513672 29.78027344 C87.22647077 29.76032276 89.68775845 29.73315236 92.14892578 29.69824219 C127.56853138 29.20890184 127.56853138 29.20890184 142 40 C142.70511719 40.52464844 143.41023438 41.04929688 144.13671875 41.58984375 C154.49753996 49.97717521 161.00420108 61.88803034 163 75 C163.25410536 79.41367751 163.29898322 83.81980819 163.30496025 88.23924065 C163.30867079 90.44820676 163.32552191 92.65674229 163.34571838 94.86561584 C163.40069083 101.13941396 163.43175513 107.41327246 163.45629883 113.68725586 C163.47227996 117.54276093 163.50260032 121.39795505 163.54106331 125.25329781 C163.5526128 126.71031936 163.55864277 128.16739671 163.55874443 129.62446404 C163.55944724 137.01410943 163.73149472 143.85305586 166.286026 150.8764801 C167.30249232 153.89968046 167.64034932 156.93054125 167.984375 160.08984375 C168.98921919 162.35450566 168.98921919 162.35450566 172.140625 164.0234375 C176.02854503 165.44518237 176.02854503 165.44518237 179.5 163.32421875 C180.68546761 162.47084084 181.85206287 161.59073178 183 160.6875 C186.62634802 157.90703003 189.05099209 156.13037489 193.66796875 155.49609375 C197.43879591 156.06635952 198.62609585 156.73412813 201.3125 159.375 C202.14265625 160.17808594 202.9728125 160.98117188 203.828125 161.80859375 C204.30830078 162.29183105 204.78847656 162.77506836 205.28320312 163.27294922 C207.37526169 165.37750302 209.49296203 167.45510041 211.609375 169.53515625 C214.85474077 172.74166882 218.09571015 175.95228862 221.31640625 179.18359375 C222.00162354 179.86993896 222.68684082 180.55628418 223.39282227 181.26342773 C225.47910868 183.51768191 225.95999196 184.65474548 226.31640625 187.73046875 C225.91280212 191.90104472 224.35382948 193.91803372 221.9375 197.3125 C219.24495147 201.30029281 217.38012875 204.35352997 218 209.3125 C218.33 210.529375 218.66 211.74625 219 213 C220.16917969 213.15855469 221.33835937 213.31710938 222.54296875 213.48046875 C224.09130985 213.71506589 225.63947847 213.95080333 227.1875 214.1875 C227.95642578 214.28869141 228.72535156 214.38988281 229.51757812 214.49414062 C230.64389648 214.67299805 230.64389648 214.67299805 231.79296875 214.85546875 C232.4789917 214.95496826 233.16501465 215.05446777 233.87182617 215.15698242 C237.25891196 216.49868338 238.80806532 218.08283261 241 221 C241.70283893 224.1975213 241.65430027 227.30747872 241.59375 230.5703125 C241.59379028 231.48835663 241.59383057 232.40640076 241.59387207 233.3522644 C241.58852348 235.28715892 241.570969 237.22205336 241.54199219 239.15673828 C241.50004114 242.1220917 241.5009329 245.08518036 241.5078125 248.05078125 C241.49732299 249.93230748 241.48438617 251.813822 241.46875 253.6953125 C241.46854858 254.5828421 241.46834717 255.4703717 241.46813965 256.38479614 C241.44427185 257.62155594 241.44427185 257.62155594 241.41992188 258.88330078 C241.41150269 259.60768341 241.4030835 260.33206604 241.39440918 261.07839966 C240.88816174 263.544887 239.93311797 264.43592154 238 266 C236.13061523 266.70776367 236.13061523 266.70776367 234.05859375 267.16796875 C233.31029297 267.33876953 232.56199219 267.50957031 231.79101562 267.68554688 C230.62602539 267.93401367 230.62602539 267.93401367 229.4375 268.1875 C228.26670898 268.45336914 228.26670898 268.45336914 227.07226562 268.72460938 C221.36501569 270 221.36501569 270 219 270 C218.03996847 273.12010248 217.618929 274.80486622 218 278 C219.81661978 281.23611802 221.87018121 284.11867009 224.1171875 287.0703125 C226.17176364 290.26726707 226.92960815 292.20889615 227 296 C225.03705772 299.86744249 222.55802586 302.66733842 219.47265625 305.6875 C218.59802734 306.55117188 217.72339844 307.41484375 216.82226562 308.3046875 C215.91154297 309.19414062 215.00082031 310.08359375 214.0625 311 C212.25941333 312.76848586 210.45855365 314.53924576 208.66015625 316.3125 C207.86230713 317.09238281 207.06445801 317.87226563 206.24243164 318.67578125 C203.93120749 320.99636959 203.93120749 320.99636959 201.83374023 323.73046875 C199.44030267 326.69271021 198.62451283 326.93095067 194.8203125 327.3515625 C189.36708656 326.84973189 186.34965981 324.23233687 182.07421875 321.0234375 C180.11230856 319.58352934 180.11230856 319.58352934 177 318 C174.25200953 318.60494389 174.25200953 318.60494389 172 320 C171.01 320 170.02 320 169 320 C168.96261719 320.60585938 168.92523438 321.21171875 168.88671875 321.8359375 C167.67111853 337.32888147 167.67111853 337.32888147 164 341 C163.89071395 343.77187409 163.84576704 346.51974194 163.84228516 349.29248047 C163.83720444 350.1625322 163.83212372 351.03258392 163.82688904 351.92900085 C163.81615716 353.82677058 163.80754813 355.72455319 163.80076981 357.62234116 C163.78900009 360.63315206 163.76954756 363.64381825 163.74765015 366.65457153 C163.68600259 375.2182324 163.63216306 383.78188255 163.59863281 392.34570312 C163.57758685 397.57951236 163.54219271 402.81306463 163.49787521 408.04672623 C163.48378019 410.03602173 163.47500757 412.02536278 163.47182083 414.01470566 C163.43962326 432.20652549 161.42887685 446.96324394 148.37890625 460.6796875 C139.57548419 469.26627651 128.70702273 476.10809256 116.0435257 476.13422108 C114.5378531 476.14090784 114.5378531 476.14090784 113.00176287 476.14772969 C111.90100656 476.14754533 110.80025025 476.14736097 109.6661377 476.14717102 C107.90961671 476.15268605 107.90961671 476.15268605 106.11761045 476.1583125 C102.86615562 476.16743084 99.61473046 476.17204718 96.36326504 476.17470181 C92.85658931 476.17860886 89.34992814 476.18818703 85.84326172 476.19691467 C77.37316532 476.21666954 68.90306775 476.22674484 60.43295407 476.23564246 C56.44174703 476.24002766 52.45054132 476.24539393 48.45933533 476.25063133 C35.18676275 476.26764394 21.914191 476.28213675 8.64160919 476.28938007 C5.19792174 476.2912899 1.7542343 476.29321024 -1.68945312 476.29516602 C-2.54534045 476.29564976 -3.40122777 476.2961335 -4.28305107 476.2966319 C-18.13896411 476.30492709 -31.99479068 476.33025521 -45.85066599 476.36274669 C-60.08448849 476.39585154 -74.31826712 476.413832 -88.55212831 476.41702431 C-96.54049828 476.41918643 -104.52874221 476.42789103 -112.51707458 476.45348549 C-119.32240371 476.4752395 -126.12757618 476.48321996 -132.93293613 476.47351871 C-136.40182951 476.4689873 -139.87039999 476.47079173 -143.33924866 476.49028015 C-147.10985877 476.50801453 -150.87965727 476.50088391 -154.65026855 476.48774719 C-156.27463435 476.50420106 -156.27463435 476.50420106 -157.93181562 476.52098733 C-171.64200378 476.40617117 -184.20669704 470.95256457 -194.34765625 461.7421875 C-203.39357313 452.20441226 -209.11248996 439.98109325 -209.13422108 426.79602718 C-209.13867892 425.53944992 -209.14313676 424.28287266 -209.14772969 422.98821729 C-209.14764041 421.59630643 -209.14745057 420.20439558 -209.14717102 418.81248474 C-209.15047153 417.33179267 -209.1541975 415.85110149 -209.1583125 414.37041146 C-209.16831928 410.30030763 -209.17204716 406.23021854 -209.17470181 402.16010416 C-209.17860878 397.77068544 -209.18818683 393.38127835 -209.19691467 388.99186707 C-209.2166678 378.39091152 -209.22674375 367.78995503 -209.23564246 357.18898568 C-209.24002718 352.19510768 -209.2453935 347.20123075 -209.25063133 342.20735359 C-209.26764232 325.60376296 -209.28213619 309.00017298 -209.28938007 292.39657497 C-209.29128992 288.0888462 -209.29321026 283.78111743 -209.29516602 279.47338867 C-209.29564976 278.40274259 -209.2961335 277.3320965 -209.2966319 276.2290066 C-209.30493109 258.88770773 -209.33026672 241.54647787 -209.36274669 224.20520913 C-209.39583083 206.39599607 -209.41383005 188.58681807 -209.41702431 170.77757412 C-209.41918813 160.78049474 -209.4279181 150.783516 -209.45348549 140.7864666 C-209.47521095 132.2720528 -209.4832338 123.75776408 -209.47351871 115.2433257 C-209.46897939 110.90156022 -209.47083871 106.56005272 -209.49028015 102.21832275 C-209.5079511 98.2374878 -209.50688256 94.2570983 -209.49138286 90.27625836 C-209.48901273 88.84214721 -209.4932993 87.40800489 -209.50521151 85.97394126 C-209.63290329 69.57557087 -204.75771712 56.33032202 -193.51171875 44.359375 C-183.44430757 34.90258441 -170.24628246 29.85347779 -156.45361328 29.88647461 C-155.39296661 29.88655014 -154.33231995 29.88662567 -153.23953247 29.88670349 C-151.54701859 29.89444542 -151.54701859 29.89444542 -149.8203125 29.90234375 C-148.06846146 29.90446617 -148.06846146 29.90446617 -146.28121948 29.90663147 C-142.56245326 29.91221502 -138.84374793 29.92476456 -135.125 29.9375 C-132.5989592 29.94251712 -130.07291746 29.94707966 -127.546875 29.95117188 C-121.36456267 29.96217907 -115.18228569 29.97890087 -109 30 C-109.061875 28.7625 -109.12375 27.525 -109.1875 26.25 C-109.1594246 23.63153875 -108.999488 21.99864126 -108.06567383 19.52050781 C-104.64885394 17.00544408 -101.06909239 17.557869 -96.94921875 17.671875 C-95.11784122 17.67688117 -93.28646029 17.68075168 -91.45507812 17.68359375 C-88.57108653 17.71059052 -85.68841085 17.74998071 -82.80493164 17.81103516 C-80.01874045 17.86211413 -77.23579904 17.86370479 -74.44921875 17.859375 C-73.16454964 17.90732208 -73.16454964 17.90732208 -71.85392761 17.95623779 C-68.18485906 17.92679464 -65.91968353 17.87964998 -63.19473267 15.27331543 C-61.59829944 13.18777954 -61.59829944 13.18777954 -60.29768372 11.03106689 C-55.17437391 3.0123295 -45.22826007 -1.49911211 -36.27319336 -3.60742188 C-24.43463481 -5.6519286 -10.87419788 -5.26503885 0 0 Z M-49.3125 21.375 C-50.69377631 23.52365204 -51.65689239 25.41318853 -52.625 27.75 C-54 31 -54 31 -56 32 C-58.8418727 32.15705184 -61.6635552 32.25857085 -64.5078125 32.31640625 C-65.62530884 32.34438293 -65.62530884 32.34438293 -66.76538086 32.3729248 C-69.55179844 32.44129012 -72.33841373 32.50139566 -75.125 32.5625 C-81.35375 32.706875 -87.5825 32.85125 -94 33 C-94 45.54 -94 58.08 -94 71 C-47.14 71 -0.28 71 48 71 C48 58.46 48 45.92 48 33 C35.67454652 32.82961011 35.67454652 32.82961011 23.34863281 32.70214844 C21.80009999 32.6727759 20.25159377 32.6419496 18.703125 32.609375 C17.90310059 32.60824707 17.10307617 32.60711914 16.27880859 32.60595703 C12.62437072 32.5120185 10.4616742 32.3567379 7.52416992 30.08691406 C6.06793612 28.09301905 5.02384634 26.26824575 4.0625 24 C0.87653039 17.40833874 -4.01662952 15.37723573 -10.59765625 12.83203125 C-24.01363964 8.18551993 -39.30625281 11.0983137 -49.3125 21.375 Z M-185 59 C-185.680625 59.721875 -186.36125 60.44375 -187.0625 61.1875 C-192.01589423 68.37791098 -194.11949757 76.37563829 -194.13422108 85.02938843 C-194.13867892 86.24703164 -194.14313676 87.46467485 -194.14772969 88.71921635 C-194.14764041 90.06720544 -194.14745057 91.41519453 -194.14717102 92.76318359 C-194.1504717 94.1977902 -194.15419769 95.63239588 -194.1583125 97.06700039 C-194.16831758 101.00975634 -194.17204689 104.95249707 -194.17470181 108.89526391 C-194.17860932 113.14768637 -194.18818738 117.40009682 -194.19691467 121.6525116 C-194.21666698 131.92273157 -194.22674396 142.19295252 -194.23564246 152.46318674 C-194.24002759 157.30202708 -194.24539384 162.14086633 -194.25063133 166.97970581 C-194.26764276 183.06945061 -194.28213618 199.15919473 -194.28938007 215.24894714 C-194.29128991 219.42328899 -194.29321025 223.59763083 -194.29516602 227.77197266 C-194.29564976 228.80945967 -194.2961335 229.84694668 -194.2966319 230.91587269 C-194.3049294 247.71654211 -194.33026198 264.51714027 -194.36274669 281.31777859 C-194.39584051 298.57442045 -194.41383096 315.83102613 -194.41702431 333.08769989 C-194.41918731 342.77349772 -194.42790513 352.45919164 -194.45348549 362.1449585 C-194.47522426 370.39510866 -194.48322731 378.64512966 -194.47351871 386.89530522 C-194.46898314 391.10150493 -194.4708167 395.30743835 -194.49028015 399.5136013 C-194.50797827 403.37174836 -194.50686084 407.22943616 -194.49138286 411.08758855 C-194.48790441 413.12869206 -194.50398327 415.16980076 -194.52098733 417.21083641 C-194.42835635 430.58053606 -191.45277754 441.193858 -182.1875 450.8984375 C-175.39289313 457.39167068 -166.62781671 461.11406164 -157.1996994 461.13422108 C-155.74627774 461.14090784 -155.74627774 461.14090784 -154.26349401 461.14772969 C-153.20164719 461.14754533 -152.13980037 461.14736097 -151.04577637 461.14717102 C-149.9155979 461.15084771 -148.78541944 461.1545244 -147.62099314 461.1583125 C-143.81958983 461.16935876 -140.01821384 461.17319482 -136.21679688 461.17700195 C-133.49679327 461.18273392 -130.77679377 461.18989993 -128.05679321 461.19691467 C-119.88332551 461.21666798 -111.70985659 461.22674469 -103.53637099 461.23564246 C-99.68463164 461.24002796 -95.83289366 461.24539416 -91.9811554 461.25063133 C-79.17181433 461.26764387 -66.36247411 461.28213654 -53.55312347 461.28938007 C-50.22975158 461.29128989 -46.90637968 461.29321023 -43.58300781 461.29516602 C-42.75702664 461.29564976 -41.93104546 461.2961335 -41.08003455 461.2966319 C-27.70910949 461.30492659 -14.33827405 461.3302539 -0.96738809 461.36274669 C12.76922902 461.39585523 26.50580065 461.41383233 40.24245787 461.41702431 C47.95137305 461.4191861 55.6601576 461.42788584 63.36903381 461.45348549 C69.93647875 461.47524456 76.50376133 461.4832175 83.07123822 461.47351871 C86.41869519 461.46898863 89.76554729 461.47298717 93.11300278 461.49028015 C96.75225052 461.50802407 100.39065814 461.50087937 104.02990723 461.48774719 C105.5959088 461.50420106 105.5959088 461.50420106 107.19354677 461.52098733 C118.72274156 461.42103804 128.66118966 458.10671622 137 450 C145.60184833 440.74387238 148.17173921 429.97663393 148.11352539 417.60791016 C148.11374443 416.37764603 148.11374443 416.37764603 148.1139679 415.12252808 C148.11327462 412.42801208 148.10550972 409.73356633 148.09765625 407.0390625 C148.09578999 405.16433754 148.09436707 403.2896121 148.09336853 401.41488647 C148.08955973 396.49284507 148.07974346 391.57083341 148.06866455 386.64880371 C148.05841519 381.62134198 148.05386337 376.59387543 148.04882812 371.56640625 C148.03811968 361.71092447 148.02106297 351.85546471 148 342 C143.71 342 139.42 342 135 342 C135.01683838 343.09352783 135.03367676 344.18705566 135.05102539 345.3137207 C135.10214203 349.42007196 135.09314127 353.52457698 135.06713867 357.63110352 C135.06408022 359.39905247 135.07674215 361.16710831 135.10620117 362.93481445 C135.36344525 379.477947 135.36344525 379.477947 129.94140625 386.21875 C128.3354369 387.85397371 126.68912191 389.45081915 125 391 C123.62038502 392.42905106 122.2426654 393.85993527 120.8671875 395.29296875 C119.54169833 396.59649562 118.21103023 397.8947792 116.875 399.1875 C112.27214081 403.66970171 107.88004891 408.21737122 103.68798828 413.0871582 C101.0920611 416.02888361 98.30490525 418.75940027 95.5 421.5 C92.00681549 424.94965573 88.5610575 428.38484554 85.375 432.125 C84.87346374 432.68680969 84.37192747 433.24861938 83.85519314 433.82745361 C81.91217371 436.03712648 81.91217371 436.03712648 80.05765629 438.73797607 C76.08212958 443.6631873 72.72543657 447.02524883 66.28870964 448.01379395 C60.34002402 448.53400089 54.39399282 448.41959954 48.42944336 448.328125 C46.13864158 448.33321304 43.8478462 448.34307511 41.55708313 448.35733032 C35.3580814 448.38177531 29.16128534 448.33782413 22.96257472 448.27999115 C16.46503957 448.22967303 9.96755676 448.23803814 3.46986389 448.23876953 C-7.43917404 448.23133986 -18.34735144 448.18203971 -29.25610352 448.10449219 C-40.46228897 448.02487723 -51.66779478 447.98238408 -62.87426758 447.98144531 C-63.56468055 447.98138237 -64.25509353 447.98131943 -64.96642811 447.98125458 C-65.65568874 447.98119667 -66.34494937 447.98113876 -67.05509669 447.9810791 C-80.4884681 447.97972079 -93.92146791 447.93978889 -107.35474467 447.88761902 C-111.2175274 447.87501673 -115.08027133 447.86923572 -118.94307137 447.86486816 C-125.01975279 447.8559308 -131.09577378 447.82119811 -137.1722126 447.76676559 C-139.39814251 447.75061113 -141.62415145 447.74279622 -143.85013962 447.74406815 C-146.89675524 447.74428391 -149.94158936 447.71362442 -152.9879303 447.67529297 C-154.29870555 447.6858843 -154.29870555 447.6858843 -155.63596112 447.69668961 C-163.11656464 447.54550506 -169.96083487 445.12344007 -175.25390625 439.68359375 C-175.68574219 438.94238281 -176.11757812 438.20117188 -176.5625 437.4375 C-177.24505859 436.32181641 -177.24505859 436.32181641 -177.94140625 435.18359375 C-179.9122248 431.11832596 -180.12715168 427.53404468 -180.13701439 423.03842735 C-180.1446262 421.19649868 -180.1446262 421.19649868 -180.15239179 419.31735933 C-180.15299344 417.95257024 -180.15349253 416.5877811 -180.15390015 415.22299194 C-180.1579157 413.77473572 -180.16235408 412.32648062 -180.1671797 410.87822688 C-180.17914062 406.89321723 -180.18479253 402.90821968 -180.18936086 398.9231956 C-180.19531873 394.62718459 -180.20692808 390.33118803 -180.21765137 386.03518677 C-180.24217047 375.65778207 -180.25680147 365.28037259 -180.26971143 354.90294784 C-180.27342362 351.97189788 -180.27739683 349.0408484 -180.2814641 346.10979891 C-180.30670003 327.90796855 -180.3287529 309.70613743 -180.34119225 291.50429344 C-180.34412193 287.2885068 -180.3470836 283.07272018 -180.35009766 278.85693359 C-180.35084371 277.8091223 -180.35158976 276.76131102 -180.35235842 275.68174787 C-180.36501222 258.70760811 -180.39823604 241.7335731 -180.43989949 224.75948231 C-180.48232452 207.33225544 -180.50588791 189.9050822 -180.51111281 172.47780383 C-180.51452619 162.69313249 -180.52627289 152.90862487 -180.55921555 143.12400436 C-180.58722496 134.79101645 -180.59821144 126.45822581 -180.58702008 118.12519448 C-180.58183579 113.87476084 -180.58470507 109.6247403 -180.60948563 105.37436676 C-180.63200508 101.47924748 -180.63121792 97.58483738 -180.61228175 93.68970545 C-180.60948548 92.28453223 -180.61505966 90.87931064 -180.63009469 89.47421508 C-180.71565593 80.95356323 -180.05302979 74.08879432 -175 67 C-166.94606644 58.92865031 -157.3110365 58.70882911 -146.40234375 58.5859375 C-145.32747208 58.56657135 -144.2526004 58.5472052 -143.14515686 58.5272522 C-139.742683 58.46790699 -136.34017447 58.42125228 -132.9375 58.375 C-130.61782453 58.33677872 -128.29816262 58.29772463 -125.97851562 58.2578125 C-120.31912176 58.1622428 -114.65966154 58.07804679 -109 58 C-109 54.04 -109 50.08 -109 46 C-116.64970161 45.90070282 -124.29902328 45.82832743 -131.94921875 45.78027344 C-134.54856914 45.7602287 -137.14787483 45.73298553 -139.74707031 45.69824219 C-143.4955553 45.64941135 -147.24344111 45.62695874 -150.9921875 45.609375 C-152.14363251 45.58872986 -153.29507751 45.56808472 -154.48141479 45.54681396 C-166.94146685 45.54339291 -176.47573923 49.80277128 -185 59 Z M63 46 C63 49.96 63 53.92 63 58 C65.1025415 58.029729 65.1025415 58.029729 67.24755859 58.06005859 C72.48470993 58.13655523 77.72159928 58.22520255 82.95849609 58.31738281 C85.21820882 58.35549144 87.47797846 58.39037475 89.73779297 58.421875 C92.99988042 58.46792123 96.26158204 58.52584814 99.5234375 58.5859375 C101.02093033 58.60326431 101.02093033 58.60326431 102.54867554 58.62094116 C112.64879618 58.82993694 121.63158846 59.52948576 129 67 C133.10810988 72.51320254 134.11103514 77.5025103 134.20532227 84.23730469 C134.2352401 86.12881256 134.2352401 86.12881256 134.26576233 88.05853271 C134.28274401 89.42964557 134.29962291 90.8007597 134.31640625 92.171875 C134.33698835 93.57863967 134.35798515 94.98539833 134.37937927 96.39215088 C134.43447035 100.08773927 134.48393655 103.78338226 134.53222656 107.47906494 C134.58253649 111.25301959 134.63817293 115.02689532 134.69335938 118.80078125 C134.80078231 126.20045575 134.90176973 133.60019671 135 141 C139.29 141 143.58 141 148 141 C148.0681756 133.25385312 148.12304422 125.50787461 148.15543652 117.76150894 C148.17099475 114.16331961 148.19204913 110.56534879 148.22631836 106.96728516 C148.25926816 103.4853785 148.2769267 100.00368004 148.28463173 96.52162933 C148.29275243 94.56767399 148.31611272 92.61380069 148.33988953 90.65997314 C148.34235835 77.36367687 146.11964303 66.79770427 137.03125 56.84375 C128.86145011 48.91075591 119.57300142 45.4296325 108.25482178 45.43351746 C107.11369934 45.45932388 105.9725769 45.48513031 104.796875 45.51171875 C103.5930719 45.51879349 102.3892688 45.52586823 101.14898682 45.53315735 C97.3486604 45.56088151 93.54987217 45.62358188 89.75 45.6875 C87.15496937 45.71261111 84.55991538 45.7354193 81.96484375 45.75585938 C75.64264719 45.81063662 69.32158329 45.89675806 63 46 Z M-163 76 C-165.45735345 80.17263952 -166.37498673 83.24278561 -166.37473011 88.06546116 C-166.38193665 89.26564524 -166.3891432 90.46582933 -166.39656812 91.70238262 C-166.38919383 93.01219929 -166.38181955 94.32201596 -166.3742218 95.67152405 C-166.37696327 97.08382369 -166.38101609 98.49612128 -166.38626546 99.90841383 C-166.3968484 103.78462314 -166.38872592 107.66060173 -166.37751496 111.53680098 C-166.36867234 115.71884448 -166.37711661 119.90085781 -166.38337708 124.082901 C-166.3928665 132.27338824 -166.3862641 140.46378739 -166.37411413 148.65426809 C-166.3604955 158.18984699 -166.36213185 167.72540488 -166.36424746 177.26099103 C-166.36743752 194.27272631 -166.35576836 211.28441972 -166.33618164 228.29614258 C-166.31717443 244.80885086 -166.31009486 261.32151008 -166.31567383 277.83422852 C-166.32172944 295.81092976 -166.32155877 313.78760942 -166.310188 331.76430887 C-166.30898069 333.68053877 -166.3077747 335.59676868 -166.30657005 337.51299858 C-166.30596651 338.45585081 -166.30536298 339.39870303 -166.30474115 340.37012653 C-166.30085942 347.01933206 -166.3012566 353.66852956 -166.3031559 360.31773567 C-166.30527637 368.41838912 -166.30006489 376.51899957 -166.28554235 384.61964089 C-166.27829096 388.75389013 -166.27422769 392.88807668 -166.27878571 397.02233124 C-166.28285502 400.80528444 -166.27771692 404.58810807 -166.26515963 408.37104159 C-166.26083412 410.3911447 -166.26633006 412.41126142 -166.27214891 414.43136078 C-166.26631671 415.62893712 -166.26048452 416.82651345 -166.25447559 418.06037998 C-166.25360882 419.09414377 -166.25274204 420.12790755 -166.251849 421.19299752 C-165.91521745 424.94495044 -164.96135414 427.82965583 -162.5625 430.75 C-158.7240899 433.82072808 -154.04613877 433.13644692 -149.40107727 433.12025452 C-148.51238313 433.12110894 -147.623689 433.12196337 -146.70806473 433.12284368 C-143.71852355 433.12449595 -140.729038 433.11898122 -137.73950195 433.11352539 C-135.60115561 433.11324344 -133.46280917 433.11340141 -131.32446289 433.1139679 C-125.50870188 433.11425556 -119.69296137 433.10836386 -113.87720513 433.10139394 C-107.80332559 433.09515521 -101.72944561 433.09455619 -95.65556335 433.09336853 C-84.14901094 433.09025675 -72.64246799 433.08204542 -61.13591975 433.07201904 C-48.03815626 433.06085315 -34.94039232 433.05534625 -21.84262526 433.05032361 C5.10492175 433.03986269 32.05246034 433.0222662 59 433 C59.01458252 431.77482666 59.02916504 430.54965332 59.04418945 429.28735352 C59.10250298 424.70796661 59.17973219 420.12905452 59.26245117 415.55004883 C59.2955458 413.57454174 59.32362504 411.59894361 59.34643555 409.62329102 C59.38026756 406.77060428 59.4325957 403.91874035 59.48828125 401.06640625 C59.49467117 400.19415909 59.5010611 399.32191193 59.50764465 398.42323303 C59.68566604 390.86685712 61.03513456 383.40034163 66.25 377.625 C66.79140625 376.99851562 67.3328125 376.37203125 67.890625 375.7265625 C73.737499 370.94078786 79.60856906 370.5408629 86.87109375 370.48828125 C88.25458763 370.46135445 88.25458763 370.46135445 89.66603088 370.43388367 C92.58980848 370.38003264 95.5134252 370.34596615 98.4375 370.3125 C100.42905872 370.27930466 102.42059629 370.24481296 104.41210938 370.20898438 C109.27462303 370.12432074 114.13709107 370.05738974 119 370 C119.07468157 365.99821658 119.12885021 361.99670833 119.16479492 357.99438477 C119.17979409 356.63558883 119.20020038 355.27684059 119.22631836 353.91821289 C119.42487127 343.55255885 119.42487127 343.55255885 116 334 C115.51658629 331.75941583 115.07721679 329.50876671 114.6875 327.25 C113.67171285 322.18760238 113.67171285 322.18760238 110.0625 318.625 C105.60401304 317.7151047 103.85690537 318.46637159 99.9765625 320.8828125 C98.28849966 322.00155226 96.61328965 323.13318083 94.953125 324.29296875 C92.27498386 326.0469626 90.29692737 326.98169081 87.0859375 327.1796875 C82.47931915 325.41867643 79.50648533 322.40330743 76 319 C74.81905762 317.87416504 74.81905762 317.87416504 73.61425781 316.72558594 C71.09398148 314.29854297 68.60677459 311.84135985 66.125 309.375 C64.84496094 308.12589844 64.84496094 308.12589844 63.5390625 306.8515625 C62.31703125 305.63726562 62.31703125 305.63726562 61.0703125 304.3984375 C60.33570801 303.67317871 59.60110352 302.94791992 58.84423828 302.20068359 C56.89535377 299.87512826 56.05588554 297.81947044 55 295 C53.87913498 294.99413376 52.75826996 294.98826752 51.60343933 294.98222351 C41.0527559 294.92507036 30.50228005 294.85234778 19.95180798 294.76428509 C14.52737595 294.71951146 9.10302025 294.68027083 3.6784668 294.65356445 C-1.55417577 294.62760117 -6.78652571 294.5872485 -12.01898766 294.53681374 C-14.01768041 294.52009771 -16.01642382 294.50861302 -18.01517677 294.50238609 C-20.80966675 294.49279638 -23.60340002 294.46479921 -26.39770508 294.43237305 C-27.64387604 294.43452568 -27.64387604 294.43452568 -28.91522217 294.4367218 C-34.54901291 294.34394863 -34.54901291 294.34394863 -36.71265697 292.69382954 C-38.84512962 289.88801548 -38.36267652 287.38498088 -38 284 C-36.48032478 281.96675004 -35.59271973 281.11907259 -33.08473682 280.61523914 C-31.99379483 280.6083257 -31.99379483 280.6083257 -30.8808136 280.60127258 C-30.04368835 280.58873444 -29.20656311 280.57619629 -28.34407043 280.5632782 C-26.97166451 280.56543083 -26.97166451 280.56543083 -25.5715332 280.56762695 C-24.60549164 280.5574353 -23.63945007 280.54724365 -22.64413452 280.53674316 C-19.44629187 280.50651307 -16.24874826 280.49733184 -13.05078125 280.48828125 C-10.83545427 280.47144201 -8.62013689 280.4532928 -6.40483093 280.43388367 C-0.57037353 280.3862957 5.26404498 280.35654319 11.09863281 280.33044434 C17.05085944 280.3006832 23.00295188 280.25413764 28.95507812 280.20898438 C40.63664869 280.12285115 52.31824679 280.05555042 64 280 C65.14449951 276.56650146 64.77371978 274.85170668 63.265625 271.59130859 C60.74189656 268.4181485 56.81459443 268.34330441 53 267.8125 C51.37265438 267.56302485 49.74742688 267.29921432 48.125 267.01953125 C47.40570313 266.91745361 46.68640625 266.81537598 45.9453125 266.71020508 C43.22575613 265.71733491 42.49498581 264.46772483 41 262 C40.48828125 258.984375 40.48828125 258.984375 40.3125 255.75 C40.24675781 254.67234375 40.18101562 253.5946875 40.11328125 252.484375 C40.05720703 251.25460937 40.05720703 251.25460937 40 250 C39.09433289 249.99191315 38.18866577 249.98382629 37.2555542 249.97549438 C28.72131374 249.89756009 20.18723128 249.81027284 11.65319443 249.71247292 C7.26573602 249.66252282 2.87830153 249.61619266 -1.50927734 249.578125 C-5.74337724 249.54125593 -9.97727633 249.49489157 -14.21120453 249.44193649 C-15.826693 249.42340116 -17.4422245 249.40829 -19.0577774 249.39665604 C-21.32030304 249.37977872 -23.58236969 249.35074066 -25.84472656 249.31884766 C-27.13268127 249.30552399 -28.42063599 249.29220032 -29.74761963 249.2784729 C-32.78509644 249.01840031 -34.50872288 248.70435737 -37 247 C-38.42041821 244.15916359 -38.31452272 242.14522722 -38 239 C-36.43341064 236.83880615 -36.43341064 236.83880615 -34 235 C-30.70965576 234.48101807 -30.70965576 234.48101807 -26.75292969 234.45410156 C-26.03058136 234.44376389 -25.30823303 234.43342621 -24.56399536 234.42277527 C-22.18306114 234.39334338 -19.80297685 234.3918481 -17.421875 234.390625 C-15.76847715 234.37564351 -14.11509428 234.35891643 -12.46173096 234.34051514 C-8.11506463 234.29682542 -3.76860018 234.27683907 0.57824707 234.26177979 C5.01582789 234.24221445 9.45319051 234.20024383 13.890625 234.16015625 C22.59369293 234.08483662 31.29667522 234.03455594 40 234 C40.03738281 233.09636719 40.07476562 232.19273437 40.11328125 231.26171875 C40.17902344 230.08222656 40.24476563 228.90273437 40.3125 227.6875 C40.37050781 226.51574219 40.42851562 225.34398437 40.48828125 224.13671875 C41 221 41 221 42.42138672 219.11833191 C44.35349944 217.74957153 45.7854193 217.44162966 48.125 217.11328125 C48.91390625 216.97857422 49.7028125 216.84386719 50.515625 216.70507812 C52.1689737 216.44381784 53.82543501 216.2015335 55.484375 215.97851562 C58.78641989 215.38770857 61.15468455 214.94525282 63.44140625 212.38818359 C64.9814056 209.34215546 65.21604105 206.97070137 64.47329712 203.63345337 C62.98421349 200.56099384 61.78798258 199.02351023 59 197 C52.32287084 195.24181357 45.047293 195.91430164 38.2109375 196.04296875 C36.14401736 196.04747428 34.07708274 196.04743369 32.01016235 196.04304504 C26.57604061 196.04108265 21.14362315 196.08933942 15.7098999 196.15161133 C7.00638584 196.24527458 -1.69723598 196.27329905 -10.40119553 196.28124428 C-13.44178233 196.29283615 -16.48110133 196.3322428 -19.52139282 196.37480164 C-21.38225871 196.38507257 -23.24312925 196.39454096 -25.10400391 196.40307617 C-25.94981522 196.42224594 -26.79562653 196.44141571 -27.66706848 196.46116638 C-31.32327017 196.45691424 -33.52439998 196.34490601 -36.52865601 194.16621399 C-38.51441972 191.24263584 -38.5157001 189.4625578 -38 186 C-36.71445656 184.33754158 -36.71445656 184.33754158 -35 183 C-31.9871007 182.73664789 -29.18383522 182.65554932 -26.17333984 182.71044922 C-25.27052277 182.7147142 -24.36770569 182.71897919 -23.43753052 182.72337341 C-21.47480537 182.7336846 -19.51210592 182.75039522 -17.54948044 182.77270126 C-14.43810193 182.80492399 -11.32750919 182.8136471 -8.2159729 182.81497192 C0.63127906 182.82058541 9.4778979 182.84949093 18.32470703 182.94140625 C23.73612929 182.99594059 29.14616318 183.00647074 34.55781174 182.98926163 C36.6158605 182.99120017 38.67396459 183.0095972 40.73170853 183.04507065 C51.904109 183.57148194 51.904109 183.57148194 62.19158936 180.07476807 C64.46869375 177.83195863 66.21996157 175.64482492 68 173 C69.19256175 171.61129884 70.39862706 170.23393483 71.625 168.875 C72.18445313 168.23175781 72.74390625 167.58851563 73.3203125 166.92578125 C73.87460937 166.29027344 74.42890625 165.65476562 75 165 C75.57492187 164.33355469 76.14984375 163.66710937 76.7421875 162.98046875 C79.53113061 159.93742194 81.45401319 158.20221734 85.375 156.75 C91.66831581 157.18402178 96.24774011 160.63323728 101.125 164.4375 C104.01595745 166.38268361 104.01595745 166.38268361 107.75 165.4375 C111.22102607 164.24973405 111.22102607 164.24973405 113 161 C113.68389229 157.85266323 114.24976741 154.71444496 114.76757812 151.53710938 C115.6950365 146.36691326 115.6950365 146.36691326 117.5276947 144.16197205 C119.49017696 141.28021118 119.39956271 139.3118065 119.43579102 135.84204102 C119.45493057 134.59717422 119.47407013 133.35230743 119.49378967 132.06971741 C119.4983758 130.71445059 119.50171763 129.35917906 119.50390625 128.00390625 C119.51355102 126.60912265 119.52364377 125.21434209 119.53416443 123.81956482 C119.55210927 120.89843715 119.55768713 117.97757537 119.5559082 115.05639648 C119.55560323 111.3188758 119.59657476 107.58306381 119.64822483 103.84594822 C119.68163172 100.96591916 119.68766457 98.08630151 119.68607903 95.20609856 C119.68961184 93.82858317 119.70284128 92.45105632 119.72607613 91.07373238 C119.98954113 83.85038587 119.98954113 83.85038587 118.02276611 77.03373718 C115.07667308 73.99895671 111.8237053 73.68991591 107.72900391 73.43237305 C105.64468911 73.43315974 103.56026318 73.46111953 101.4765625 73.51171875 C100.37524994 73.51879349 99.27393738 73.52586823 98.13925171 73.53315735 C94.63380005 73.56106774 91.12996605 73.62380394 87.625 73.6875 C85.24351271 73.71258703 82.86200029 73.73539948 80.48046875 73.75585938 C74.65309716 73.81088343 68.82666417 73.89447743 63 74 C62.87882813 74.71027344 62.75765625 75.42054687 62.6328125 76.15234375 C62.38144531 77.53099609 62.38144531 77.53099609 62.125 78.9375 C61.88136719 80.31228516 61.88136719 80.31228516 61.6328125 81.71484375 C61.42398438 82.46894531 61.21515625 83.22304687 61 84 C58.14002987 85.42998506 55.70711278 85.12929177 52.50891113 85.13371277 C51.83482728 85.13597833 51.16074342 85.13824388 50.46623278 85.14057809 C48.19687237 85.14693204 45.92757147 85.14608784 43.65820312 85.14526367 C42.03555727 85.14825426 40.41291214 85.15165655 38.79026794 85.15544128 C34.37509985 85.16429477 29.95995112 85.16661993 25.54477501 85.16725707 C21.86408994 85.16820494 18.18340941 85.17188175 14.50272608 85.17542917 C5.82294136 85.1835785 -2.85683299 85.18601293 -11.53662109 85.18530273 C-20.50368387 85.18470149 -29.47068657 85.19526142 -38.43773413 85.2110464 C-46.12606767 85.22410035 -53.81438153 85.22948755 -61.50272608 85.22884732 C-66.09928656 85.22859175 -70.69579365 85.23147585 -75.29234314 85.24202538 C-79.61297358 85.25167062 -83.9334992 85.25181028 -88.25413322 85.24450874 C-89.84327789 85.2434585 -91.43242896 85.24585167 -93.02156258 85.2518692 C-95.18413738 85.25953027 -97.34634484 85.25498398 -99.50891113 85.24723816 C-101.32739941 85.24805531 -101.32739941 85.24805531 -103.18262482 85.24888897 C-106 85 -106 85 -108 83 C-108.4140625 80.8359375 -108.4140625 80.8359375 -108.625 78.375 C-108.69976562 77.55773437 -108.77453125 76.74046875 -108.8515625 75.8984375 C-108.90054688 75.27195312 -108.94953125 74.64546875 -109 74 C-116.04749482 73.94931431 -123.09494268 73.91427246 -130.14257812 73.89013672 C-132.54038245 73.88007555 -134.9381745 73.86642521 -137.3359375 73.84912109 C-140.78128082 73.8248782 -144.22646199 73.81351802 -147.671875 73.8046875 C-148.74491882 73.79436493 -149.81796265 73.78404236 -150.92352295 73.77340698 C-152.42462616 73.77318039 -152.42462616 73.77318039 -153.95605469 73.77294922 C-154.83541687 73.768508 -155.71477905 73.76406677 -156.62078857 73.75949097 C-159.34725977 74.0351037 -160.77598408 74.38351925 -163 76 Z M129 157 C127.84642857 162.12670096 127.84642857 162.12670096 126.72753906 167.26098633 C126.00610562 170.30038695 125.41365071 172.56998508 123.22265625 174.84765625 C108.52777187 182.46626942 108.52777187 182.46626942 102 182 C98.7575239 180.35754156 95.72131381 178.54389766 92.671875 176.56640625 C90.08485772 174.74712407 90.08485772 174.74712407 87 175 C85.29088974 176.29397264 85.29088974 176.29397264 83.64453125 178.0625 C83.02255859 178.69414062 82.40058594 179.32578125 81.75976562 179.9765625 C81.11716797 180.64429688 80.47457031 181.31203125 79.8125 182 C79.15830078 182.66773438 78.50410156 183.33546875 77.83007812 184.0234375 C76.21313865 185.67578441 74.60359509 187.33471601 73 189 C74.52391802 193.0755947 76.47502721 196.43290427 78.87890625 200.03515625 C80.05777605 202.10125907 80.60270133 203.65923966 81 206 C80.15873983 208.75634732 79.25646648 211.33602935 78.1875 214 C77.77661133 215.06734375 77.77661133 215.06734375 77.35742188 216.15625 C76.59502241 218.1161834 75.82562845 220.06583012 75 222 C74.72341553 222.70672852 74.44683105 223.41345703 74.16186523 224.14160156 C72.65301482 226.55500131 71.59268021 226.79340502 68.8671875 227.484375 C67.77833252 227.77393066 67.77833252 227.77393066 66.66748047 228.06933594 C65.74596191 228.29395508 64.82444336 228.51857422 63.875 228.75 C60.94625 229.4925 58.0175 230.235 55 231 C55.33 238.26 55.66 245.52 56 253 C61.41131546 254.97879172 61.41131546 254.97879172 64.81640625 255.46484375 C69.1372518 256.20854547 72.07992406 256.71524703 74.71484375 260.39453125 C75.9886037 263.22467873 77.01654737 266.05790641 78 269 C78.61338166 270.25574199 79.2364752 271.50685436 79.875 272.75 C81.31016867 276.89604283 81.2864848 278.78318872 80 283 C77.8580709 286.48638579 75.49663424 289.76024225 73 293 C74.57470419 296.82555254 77.00978509 299.24457564 79.9375 302.125 C81.25041016 303.42824219 81.25041016 303.42824219 82.58984375 304.7578125 C84.98347586 307.10497893 84.98347586 307.10497893 88 309 C91.45922477 308.66887258 93.58693448 306.985305 96.3125 304.9375 C100.51358261 302.11404513 102.84663149 301.03920248 108 302 C112.11004828 303.44866855 116.07715814 305.10271272 120 307 C120.88816406 307.37125 121.77632813 307.7425 122.69140625 308.125 C126.2001945 310.97477726 126.74295138 314.41850162 127.8125 318.6875 C128.8953125 322.8021875 128.8953125 322.8021875 130 327 C137.26 327 144.52 327 152 327 C153.19322866 321.87223625 153.19322866 321.87223625 154.36254883 316.73901367 C155.98609658 310.00926895 155.98609658 310.00926895 159 308 C173.53526712 300.40915529 173.53526712 300.40915529 181 302 C183.95410172 303.75257367 186.73064741 305.6105685 189.484375 307.6640625 C190.31453125 308.10492188 191.1446875 308.54578125 192 309 C195.01052601 307.88120312 197.00646924 306.23340138 199.234375 303.9609375 C199.80800781 303.38085938 200.38164062 302.80078125 200.97265625 302.203125 C201.55917969 301.59984375 202.14570313 300.9965625 202.75 300.375 C203.65298828 299.45847656 203.65298828 299.45847656 204.57421875 298.5234375 C206.05405305 297.02011376 207.52764676 295.51065144 209 294 C208.50628906 293.22914063 208.01257813 292.45828125 207.50390625 291.6640625 C206.86324219 290.66117188 206.22257813 289.65828125 205.5625 288.625 C204.60537109 287.12839844 204.60537109 287.12839844 203.62890625 285.6015625 C200.97880718 281.36903018 200.67454895 279.06483195 201 274 C201.75385013 271.13148938 202.82753077 268.47053465 204 265.75 C204.26683594 265.04359375 204.53367187 264.3371875 204.80859375 263.609375 C206.02365615 260.75802857 207.02883497 258.62303279 209.68359375 256.91992188 C214.87843275 254.8346696 220.55578789 254.08884242 226 253 C226 245.41 226 237.82 226 230 C221.24579241 229.13574342 221.24579241 229.13574342 216.48730469 228.2956543 C212.59862923 227.55358457 209.72634193 226.92462134 207 224 C205.75280679 221.5885691 204.72129866 219.32746974 203.75 216.8125 C203.3478125 215.86020508 203.3478125 215.86020508 202.9375 214.88867188 C201.0240429 210.0610977 200.46572877 206.19081163 201 201 C202.6015625 197.953125 202.6015625 197.953125 204.625 195.25 C206.68121775 192.63714791 206.68121775 192.63714791 208 190 C207.1012805 185.80597569 203.18952239 183.04995931 200.125 180.25 C199.59519531 179.74339844 199.06539062 179.23679688 198.51953125 178.71484375 C195.36237115 175.80837626 194.45224286 175 190 175 C187.67370852 176.38308602 185.58088462 177.97046962 183.4140625 179.58984375 C180.39223547 181.35502103 178.51910755 181.89873072 175 182 C171.95623788 181.12551074 169.12847193 179.873365 166.25 178.5625 C164.73558877 177.8943774 163.22001593 177.2288797 161.703125 176.56640625 C160.70780762 176.11696655 160.70780762 176.11696655 159.69238281 175.65844727 C157.99201036 174.879137 157.99201036 174.879137 156 175 C154.68 169.06 153.36 163.12 152 157 C144.41 157 136.82 157 129 157 Z M76 389 C74.56490779 391.87018441 74.88841494 394.33543723 74.90234375 397.5390625 C74.90556641 398.84101563 74.90878906 400.14296875 74.91210938 401.484375 C74.92046534 402.86458399 74.92893029 404.24479232 74.9375 405.625 C74.94251499 407.01301926 74.9470779 408.40104022 74.95117188 409.7890625 C74.96299024 413.19275132 74.97946566 416.59635439 75 420 C81.53095462 414.475748 87.68314691 408.76267764 93.25 402.25 C96.96313366 397.91368307 101.0093632 393.93607193 105.08886719 389.94824219 C106.40967551 388.64932107 107.70718248 387.32678316 109 386 C109 385.67 109 385.34 109 385 C104.62522526 384.88348275 100.25085173 384.81264 95.875 384.75 C94.01875 384.69972656 94.01875 384.69972656 92.125 384.6484375 C83.21757569 384.43940903 83.21757569 384.43940903 76 389 Z " fill="#55A1D8" transform="translate(240,20)"/>
<path d="M0 0 C1.04484306 -0.01051392 1.04484306 -0.01051392 2.11079407 -0.02124023 C4.40231753 -0.03877756 6.6925959 -0.02721529 8.98413086 -0.01367188 C10.58166235 -0.01636774 12.17919225 -0.02025096 13.77671814 -0.02526855 C17.11985951 -0.03115751 20.46257258 -0.02261936 23.80566406 -0.00390625 C28.08882446 0.01890197 32.37098329 0.00574538 36.65410709 -0.01819611 C39.95099934 -0.0326549 43.24765434 -0.02804816 46.54455376 -0.01768494 C48.12379513 -0.01501881 49.70305812 -0.01828345 51.28227425 -0.02760315 C53.48954417 -0.03777282 55.69519439 -0.02226584 57.90234375 0 C59.15745255 0.00318237 60.41256134 0.00636475 61.70570374 0.00964355 C65.45029142 0.60761355 66.65793977 1.49816311 68.88647461 4.51757812 C69.13647461 7.26757812 69.13647461 7.26757812 68.88647461 9.51757812 C69.93834961 9.24945313 70.99022461 8.98132813 72.07397461 8.70507812 C75.88647461 8.51757812 75.88647461 8.51757812 78.82397461 10.58007812 C80.88647461 13.51757812 80.88647461 13.51757812 81.51147461 16.45507812 C80.69556875 20.45301686 78.77152922 22.78684039 75.88647461 25.51757812 C74.87480225 26.15163574 73.86312988 26.78569336 72.82080078 27.43896484 C70.74124429 29.18005421 69.97777193 30.12853713 69.35223389 32.79411316 C69.17842974 35.66665766 69.18709541 38.48824538 69.25756836 41.36523438 C69.25572037 42.4140831 69.25387238 43.46293182 69.25196838 44.54356384 C69.24771938 47.88986446 69.2818939 51.23406043 69.32397461 54.58007812 C69.36074469 57.92952027 69.38849516 61.27764931 69.38526917 64.62730408 C69.38349798 66.70974669 69.40478497 68.79236403 69.45152283 70.87428284 C69.45124588 71.81883835 69.45096893 72.76339386 69.45068359 73.73657227 C69.46211899 74.56532364 69.47355438 75.39407501 69.4853363 76.24794006 C68.57272381 79.70666864 66.91072988 80.71138747 63.88647461 82.51757812 C60.62341309 83.0255127 60.62341309 83.0255127 56.88061523 83.03515625 C56.19541306 83.04216553 55.51021088 83.0491748 54.804245 83.05639648 C52.5499868 83.07393358 50.29699451 83.06237045 48.04272461 83.04882812 C46.47000895 83.05152431 44.89729493 83.05540778 43.32458496 83.0604248 C40.03271574 83.06631399 36.74128145 83.05777606 33.44946289 83.0390625 C29.23589711 83.01627272 25.0233505 83.02939899 20.80982208 83.05335236 C17.56350057 83.06782634 14.31741956 83.06319713 11.0710907 83.05284119 C9.5177956 83.0501783 7.96447846 83.05342828 6.41120911 83.0627594 C4.23766487 83.07295213 2.06575675 83.05738928 -0.10766602 83.03515625 C-1.96035095 83.03038269 -1.96035095 83.03038269 -3.85046387 83.0255127 C-7.83536964 82.40521443 -9.4658978 81.56067629 -12.11352539 78.51757812 C-12.7484436 75.25415039 -12.7484436 75.25415039 -12.76049805 71.33398438 C-12.76925964 70.61806122 -12.77802124 69.90213806 -12.78704834 69.16452026 C-12.80902181 66.80241959 -12.79449923 64.44219718 -12.77758789 62.08007812 C-12.78095667 60.43627565 -12.78580981 58.7924756 -12.79208374 57.14868164 C-12.7994522 53.70532492 -12.78875115 50.26261716 -12.76538086 46.81933594 C-12.73689219 42.40705208 -12.75329644 37.99628874 -12.78324318 33.58406067 C-12.8013174 30.19019121 -12.79555776 26.79668186 -12.78260422 23.40280151 C-12.7792705 21.77611104 -12.78335614 20.1493878 -12.79500198 18.5227356 C-12.80771394 16.24800127 -12.78833442 13.97572332 -12.76049805 11.70117188 C-12.75652008 10.40751709 -12.75254211 9.1138623 -12.7484436 7.78100586 C-12.11352539 4.51757812 -12.11352539 4.51757812 -10.01768494 2.10095215 C-6.43660199 0.14851337 -4.07241065 0.0103192 0 0 Z M2.88647461 16.51757812 C2.88647461 33.01757812 2.88647461 49.51757812 2.88647461 66.51757812 C19.71647461 66.51757812 36.54647461 66.51757812 53.88647461 66.51757812 C53.88647461 58.92757812 53.88647461 51.33757812 53.88647461 43.51757812 C48.5031498 47.55507173 43.47536605 51.5367661 38.47631836 55.97851562 C34.96440872 58.06553282 32.91675403 58.09583561 28.88647461 57.51757812 C26.4690795 56.04561432 24.56565149 54.70429639 22.44897461 52.89257812 C21.31923796 51.97012515 20.18903041 51.04824859 19.05834961 50.12695312 C18.51758789 49.67771484 17.97682617 49.22847656 17.41967773 48.765625 C14.83749877 46.66369843 12.10361915 44.77408588 9.37475586 42.86914062 C7.56965992 41.22986715 6.75583785 39.78928106 5.88647461 37.51757812 C6.32125722 32.08279552 6.32125722 32.08279552 8.88647461 29.51757812 C15.40092783 28.67298376 15.40092783 28.67298376 18.77075195 30.58886719 C20.61260371 32.039962 22.35105185 33.55218789 24.07397461 35.14257812 C26.29715598 37.18353151 28.36190365 38.81040111 30.88647461 40.51757812 C35.33175045 39.88732785 38.07836062 36.77739937 41.26147461 33.76757812 C44.44323918 30.77095006 47.60542403 27.92373906 51.07397461 25.26757812 C52.46616211 23.90632813 52.46616211 23.90632813 53.88647461 22.51757812 C53.88647461 20.53757812 53.88647461 18.55757813 53.88647461 16.51757812 C37.05647461 16.51757812 20.22647461 16.51757812 2.88647461 16.51757812 Z " fill="#55A1D8" transform="translate(112.113525390625,341.482421875)"/>
<path d="M0 0 C0.70616959 -0.00700928 1.41233917 -0.01401855 2.13990784 -0.02124023 C4.46932542 -0.03881562 6.79752364 -0.02720034 9.12695312 -0.01367188 C10.74833407 -0.01636695 12.36971345 -0.0202495 13.99108887 -0.02526855 C17.38728236 -0.03116294 20.78305472 -0.02260297 24.17919922 -0.00390625 C28.53076448 0.01888374 32.88134295 0.00576027 37.23287201 -0.01819611 C40.58037745 -0.03265598 43.92764924 -0.02804733 47.27516174 -0.01768494 C48.87952288 -0.01501815 50.48390528 -0.01828576 52.08824158 -0.02760315 C54.33153397 -0.03777246 56.57323248 -0.02226523 58.81640625 0 C60.09229614 0.00318237 61.36818604 0.00636475 62.68273926 0.00964355 C66.45782928 0.6041313 67.66857419 1.47014575 69.90820312 4.51757812 C70.15820312 7.26757813 70.15820312 7.26757813 69.90820312 9.51757812 C70.96007812 9.27007812 72.01195312 9.02257812 73.09570312 8.76757812 C76.90820312 8.51757812 76.90820312 8.51757812 79.84570312 10.01757812 C81.90820312 12.51757812 81.90820312 12.51757812 82.47070312 15.95507812 C81.45087743 22.41397419 76.87683586 25.73709669 71.90820312 29.51757812 C71.24820313 29.51757812 70.58820313 29.51757812 69.90820312 29.51757812 C69.91819588 30.42839897 69.91819588 30.42839897 69.9283905 31.35762024 C69.99467199 37.66764032 70.03997376 43.9775618 70.07299805 50.2878418 C70.0881006 52.64400244 70.10858404 55.0001349 70.13452148 57.35620117 C70.17083969 60.73949124 70.18791479 64.1224102 70.20117188 67.50585938 C70.21665573 68.5621907 70.23213959 69.61852203 70.24809265 70.7068634 C70.24831924 71.68765366 70.24854584 72.66844391 70.2487793 73.67895508 C70.25877205 74.97468193 70.25877205 74.97468193 70.26896667 76.29658508 C69.82159055 79.05079699 69.14627447 79.8862137 66.90820312 81.51757812 C63.48820867 82.82129469 60.0083352 82.6509932 56.38305664 82.6628418 C55.41399384 82.66787971 55.41399384 82.66787971 54.425354 82.67301941 C52.29591942 82.68249571 50.16656372 82.68447075 48.03710938 82.68554688 C46.55264758 82.68876145 45.06818611 82.69212568 43.58372498 82.69563293 C40.47434759 82.70161566 37.36499797 82.70347368 34.25561523 82.70288086 C30.27658897 82.70277921 26.29774105 82.71643768 22.31875706 82.73365307 C19.25350633 82.74478502 16.18829858 82.74679971 13.12302971 82.74627113 C11.65625328 82.7474492 10.18947566 82.75186127 8.72271919 82.7596035 C6.66926786 82.76942894 4.61620202 82.76651566 2.56274414 82.76049805 C0.81212425 82.76263557 0.81212425 82.76263557 -0.97386169 82.76481628 C-4.1409195 82.51368292 -6.29268351 82.0030078 -9.09179688 80.51757812 C-11.55530971 76.82230888 -11.35600655 74.95151427 -11.38232422 70.53930664 C-11.38904144 69.83328308 -11.39575867 69.12725952 -11.40267944 68.39984131 C-11.42168158 66.06531747 -11.42558458 63.73108074 -11.42773438 61.39648438 C-11.43416035 59.77367535 -11.44088856 58.15086749 -11.44790649 56.52806091 C-11.45988448 53.12602044 -11.46358674 49.72408156 -11.46240234 46.32202148 C-11.46219902 41.96265302 -11.48951166 37.60393553 -11.52394676 33.24472141 C-11.54618306 29.89296984 -11.55024091 26.54137581 -11.54918289 23.18955803 C-11.55154339 21.58238415 -11.56039217 19.97520623 -11.57584763 18.36810493 C-11.59544436 16.12002056 -11.58969614 13.87335129 -11.57763672 11.62524414 C-11.58191177 9.70688499 -11.58191177 9.70688499 -11.58627319 7.74977112 C-11.09179688 4.51757812 -11.09179688 4.51757812 -9.50466919 2.10569763 C-6.21391439 -0.0602321 -3.92858234 0.00979882 0 0 Z M3.90820312 15.51757812 C3.90820312 32.34757812 3.90820312 49.17757813 3.90820312 66.51757812 C20.73820313 66.51757812 37.56820312 66.51757812 54.90820312 66.51757812 C54.90820312 58.92757812 54.90820312 51.33757812 54.90820312 43.51757812 C49.97688204 46.80512551 45.78295704 50.11549231 41.49609375 54.15820312 C38.83092093 56.50551129 36.98234199 57.50418258 33.47070312 58.13867188 C28.80041069 57.32444326 26.37194278 55.37209439 22.84570312 52.33007812 C22.25982422 51.84732422 21.67394531 51.36457031 21.0703125 50.8671875 C18.75688619 48.95431003 16.47344085 47.00970376 14.20947266 45.03857422 C11.45478121 42.36757959 11.45478121 42.36757959 7.90820312 41.51757812 C7.09765238 37.75957015 6.62153774 35.29326092 7.97070312 31.64257812 C9.90820312 29.51757812 9.90820312 29.51757812 12.53320312 28.33007812 C20.18038525 28.75492158 26.42506703 35.61775438 31.90820312 40.51757812 C36.58691952 38.45150944 40.17925336 35.15134471 44.06835938 31.88867188 C45.81756573 30.42819284 47.59189864 28.99651441 49.40429688 27.61523438 C50.12746094 27.04675781 50.850625 26.47828125 51.59570312 25.89257812 C52.23894531 25.4053125 52.8821875 24.91804688 53.54492188 24.41601562 C55.58871001 21.95947495 55.58871001 21.95947495 54.90820312 15.51757812 C38.07820313 15.51757812 21.24820313 15.51757812 3.90820312 15.51757812 Z " fill="#55A1D7" transform="translate(111.091796875,243.482421875)"/>
<path d="M0 0 C1.07629417 -0.00810448 1.07629417 -0.00810448 2.17433167 -0.01637268 C4.54104121 -0.02885866 6.90653402 -0.0123729 9.27319336 0.00561523 C10.91938847 0.00546026 12.56558394 0.00397152 14.21177673 0.00120544 C17.65925251 -0.00017842 21.10631218 0.0123784 24.55371094 0.03515625 C28.97474892 0.06356346 33.39509671 0.06079751 37.81618595 0.04806614 C41.21424771 0.04111526 44.61214961 0.04889103 48.01019096 0.06132317 C49.64049098 0.06584188 51.27080812 0.0661708 52.9011097 0.06225777 C55.17792143 0.05935069 57.4537777 0.07582613 59.73046875 0.09765625 C61.02634415 0.10305923 62.32221954 0.10846222 63.65736389 0.11402893 C66.80053711 0.50170898 66.80053711 0.50170898 68.69944763 1.85899353 C70.1358866 4.00201691 70.45808301 5.96754863 70.80053711 8.50170898 C71.87303711 8.41920898 72.94553711 8.33670898 74.05053711 8.25170898 C77.80053711 8.50170898 77.80053711 8.50170898 80.23803711 10.06420898 C82.43075598 13.48485042 82.43061404 15.51122177 81.80053711 19.50170898 C79.35419926 22.52365574 76.96019303 24.40226871 73.66235352 26.45629883 C71.58640015 28.2024181 70.88150965 29.15164488 70.26409912 31.82086182 C70.0754265 34.76368885 70.0749204 37.65499969 70.13647461 40.60327148 C70.13014511 42.21339615 70.13014511 42.21339615 70.12368774 43.85604858 C70.11282242 47.28030654 70.14092132 50.70263039 70.17553711 54.12670898 C70.19954996 57.55766458 70.21479643 60.98775806 70.20596313 64.41879272 C70.20137109 66.55232755 70.21622327 68.68600946 70.25228882 70.81924438 C70.25193634 71.78389618 70.25158386 72.74854797 70.2512207 73.74243164 C70.26043549 74.59116852 70.26965027 75.4399054 70.27914429 76.31436157 C69.80053711 78.50170898 69.80053711 78.50170898 68.21560669 80.27391052 C64.93451823 81.94198477 62.38659952 81.89018716 58.70874023 81.90576172 C57.64948586 81.91605659 57.64948586 81.91605659 56.5688324 81.92655945 C54.23961155 81.94482871 51.91106408 81.94099047 49.58178711 81.93530273 C47.9604063 81.93986413 46.33902743 81.94516957 44.71765137 81.95118713 C41.32153462 81.96011817 37.92565303 81.95769487 34.52954102 81.94775391 C30.17801104 81.93625726 25.8272917 81.95648571 21.47586823 81.98567104 C18.12838591 82.00401781 14.78109847 82.0037438 11.43357849 81.99803352 C9.82920697 81.99788016 8.22482236 82.0039372 6.62049866 82.016325 C4.37725956 82.03120733 2.13552601 82.02058089 -0.10766602 82.00341797 C-1.38355591 82.0032518 -2.6594458 82.00308563 -3.97399902 82.00291443 C-7.19946289 81.50170898 -7.19946289 81.50170898 -9.61035156 79.91358948 C-11.77804551 76.62356275 -11.70724151 74.33876947 -11.71704102 70.40991211 C-11.72405029 69.70374252 -11.73105957 68.99757294 -11.73828125 68.27000427 C-11.75585663 65.94058669 -11.74424135 63.61238846 -11.73071289 61.28295898 C-11.73340797 59.66157804 -11.73729052 58.04019866 -11.74230957 56.41882324 C-11.74820395 53.02262975 -11.73964398 49.62685739 -11.72094727 46.23071289 C-11.69815728 41.87914763 -11.71128075 37.52856916 -11.73523712 33.1770401 C-11.749697 29.82953466 -11.74508835 26.48226287 -11.73472595 23.13475037 C-11.73205917 21.53038923 -11.73532677 19.92600683 -11.74464417 18.32167053 C-11.75481348 16.07837814 -11.73930624 13.83667963 -11.71704102 11.59350586 C-11.71385864 10.31761597 -11.71067627 9.04172607 -11.70739746 7.72717285 C-11.19946289 4.50170898 -11.19946289 4.50170898 -9.61708069 2.08982849 C-6.29490945 -0.09248707 -3.96303021 0.00050786 0 0 Z M3.80053711 15.50170898 C3.80053711 32.33170898 3.80053711 49.16170898 3.80053711 66.50170898 C20.63053711 66.50170898 37.46053711 66.50170898 54.80053711 66.50170898 C54.80053711 58.91170898 54.80053711 51.32170898 54.80053711 43.50170898 C50.6995431 45.96230539 47.21068178 48.54047239 43.61303711 51.62670898 C36.96445109 57.30252728 36.96445109 57.30252728 33.17553711 57.95092773 C28.19663988 57.28822729 25.51007974 54.54611314 21.80053711 51.31420898 C21.11475586 50.73606445 20.42897461 50.15791992 19.72241211 49.56225586 C18.37374542 48.42335317 17.03118633 47.27717241 15.6953125 46.12329102 C13.94282103 44.62347806 12.15735421 43.17643699 10.35913086 41.73217773 C7.80053711 39.50170898 7.80053711 39.50170898 6.86303711 37.00170898 C6.79652967 34.3414116 7.13894237 32.0745774 7.80053711 29.50170898 C11.37311105 28.41177117 13.16704585 27.94921922 16.80053711 28.50170898 C20.44182417 30.77220849 23.62604735 33.30549126 26.88256836 36.08374023 C29.20089794 38.00481923 31.05659414 39.35230915 33.80053711 40.50170898 C34.39479492 39.95643555 34.98905273 39.41116211 35.60131836 38.84936523 C36.43018555 38.09526367 37.25905273 37.34116211 38.11303711 36.56420898 C39.46461914 35.33250977 39.46461914 35.33250977 40.84350586 34.07592773 C44.6432558 30.76808729 48.66431251 27.78856389 52.74584961 24.83764648 C55.5710715 22.14420285 55.5710715 22.14420285 54.80053711 15.50170898 C37.97053711 15.50170898 21.14053711 15.50170898 3.80053711 15.50170898 Z " fill="#55A1D8" transform="translate(111.199462890625,145.498291015625)"/>
<path d="M0 0 C0.82927002 0.00757324 1.65854004 0.01514648 2.51293945 0.02294922 C14.12059844 0.33369651 22.56241444 4.4416585 30.75390625 12.54296875 C39.74502838 22.16330385 43.21808691 32.1041878 42.93359375 45.2578125 C41.80430905 56.8937333 36.86309409 66.80440078 28.3125 74.75 C18.00098516 82.91135592 6.55971995 85.61071723 -6.375 84.4375 C-14.59609198 82.79700999 -21.17578019 80.10281571 -27.375 74.4375 C-28.674375 73.2928125 -28.674375 73.2928125 -30 72.125 C-38.81059468 62.15511655 -42.35927164 52.74369095 -42.375 39.4375 C-41.43732815 26.65106569 -35.5813178 17.1332153 -26.375 8.4375 C-18.63354302 2.25025523 -9.78803915 -0.12619389 0 0 Z M-20.375 24.4375 C-25.33267282 32.07608828 -27.2122722 38.31123298 -26.375 47.4375 C-24.65382443 54.60215251 -21.31242153 60.04287304 -15.375 64.4375 C-8.53880462 68.47036346 -1.73078913 70.17981429 6.125 68.875 C13.77067162 66.90107445 20.39097918 61.01776166 24.625 54.4375 C27.43827265 47.43815499 27.95062487 39.88913328 25.78515625 32.6171875 C22.45335068 25.28048432 17.18047276 19.74238811 9.75 16.5 C-1.17001428 13.08749554 -12.4878301 16.18348499 -20.375 24.4375 Z " fill="#55A1D8" transform="translate(380.375,219.5625)"/>
<path d="M0 0 C1.00515152 -0.00571014 2.01030304 -0.01142029 3.0459137 -0.01730347 C4.14779022 -0.01842133 5.24966675 -0.01953918 6.38493347 -0.02069092 C8.12677666 -0.02813828 8.12677666 -0.02813828 9.90380859 -0.03573608 C13.75453784 -0.05036979 17.60522589 -0.0571617 21.45597839 -0.06268311 C23.45270073 -0.06698061 25.44942307 -0.07127862 27.44614524 -0.07565761 C33.01059782 -0.08746841 38.57504041 -0.09500584 44.13950425 -0.09845281 C51.33035137 -0.10293199 58.52100825 -0.12047437 65.71179754 -0.1494534 C71.27369315 -0.17108802 76.83553532 -0.18115805 82.39747256 -0.18249393 C85.7176505 -0.18354076 89.03760904 -0.19087273 92.35775185 -0.20731354 C96.06357384 -0.22435435 99.76893202 -0.22249825 103.47477722 -0.21600342 C104.57058105 -0.2252182 105.66638489 -0.23443298 106.7953949 -0.243927 C112.28934887 -0.21374119 116.43230259 -0.08064967 121.12394714 3.14044189 C122.56825569 6.02905899 122.5008322 7.93691891 122.12394714 11.14044189 C120.3367157 13.79922485 120.3367157 13.79922485 117.12394714 16.14044189 C113.20288965 16.89363366 109.3272468 16.82326632 105.34465027 16.78741455 C104.15226242 16.79617615 102.95987457 16.80493774 101.73135376 16.81396484 C98.46867731 16.83218059 95.20701778 16.82794075 91.94435692 16.81206942 C88.52604959 16.79938793 85.10780897 16.81115673 81.6894989 16.81900024 C75.9495885 16.82809037 70.21000004 16.81612603 64.47013855 16.79229736 C57.83917266 16.76508679 51.20897547 16.77390144 44.5780282 16.80142939 C38.8793158 16.82413803 33.18083447 16.82731214 27.48209143 16.81423604 C24.08088936 16.80645096 20.68004833 16.80537333 17.27886963 16.82191849 C13.48646412 16.83460267 9.69553912 16.81528011 5.90324402 16.78741455 C4.77893478 16.79753571 3.65462555 16.80765686 2.49624634 16.81808472 C-5.09259638 16.71466581 -5.09259638 16.71466581 -9.08100891 13.79141235 C-11.2741586 10.55250834 -11.52923423 8.97788244 -10.87605286 5.14044189 C-8.18774067 0.40389185 -5.16306026 0.0175652 0 0 Z " fill="#56A1D7" transform="translate(211.8760528564453,351.85955810546875)"/>
<path d="M0 0 C1.78858177 -0.0131424 1.78858177 -0.0131424 3.61329651 -0.02655029 C6.87597296 -0.04476604 10.13763248 -0.0405262 13.40029335 -0.02465487 C16.81860067 -0.01197338 20.2368413 -0.02374218 23.65515137 -0.03158569 C29.39506176 -0.04067582 35.13465023 -0.02871148 40.87451172 -0.00488281 C47.50547761 0.02232776 54.1356748 0.01351311 60.76662207 -0.01401484 C66.46533447 -0.03672348 72.1638158 -0.03989759 77.86255884 -0.02682149 C81.26376091 -0.01903641 84.66460194 -0.01795878 88.06578064 -0.03450394 C91.85818615 -0.04718812 95.64911115 -0.02786556 99.44140625 0 C100.56571548 -0.01012115 101.69002472 -0.02024231 102.84840393 -0.03067017 C110.43821961 0.072762 110.43821961 0.072762 114.42175293 2.9960022 C116.22070312 5.64697266 116.22070312 5.64697266 116.78320312 8.70947266 C116.09879108 12.28362443 115.07251443 13.44700393 112.22070312 15.64697266 C109.38023862 16.59379416 107.67239397 16.76527805 104.73309326 16.74861145 C103.82808704 16.74598895 102.92308083 16.74336645 101.99065018 16.74066448 C100.52042971 16.72872917 100.52042971 16.72872917 99.02050781 16.71655273 C97.48304964 16.71000656 97.48304964 16.71000656 95.91453171 16.70332813 C93.75578997 16.69358663 91.59705725 16.6816228 89.43833923 16.66757584 C86.41026261 16.64818644 83.38224551 16.63514265 80.35412598 16.62484741 C68.82360896 16.58306565 57.29335038 16.5021435 45.76312637 16.41125774 C40.0024162 16.36609195 34.24178662 16.32687486 28.48095703 16.30053711 C22.84574633 16.27460908 17.21080932 16.23434078 11.57576752 16.18378639 C9.4403088 16.16711496 7.3048033 16.15560241 5.16928864 16.14935875 C2.20728737 16.13978851 -0.75399451 16.1118352 -3.71582031 16.0793457 C-5.03402519 16.08149834 -5.03402519 16.08149834 -6.37886047 16.08369446 C-12.33838547 15.99074428 -12.33838547 15.99074428 -14.46457291 14.33298969 C-16.66712255 11.50841487 -16.77929688 9.16779379 -16.77929688 5.64697266 C-12.52942638 -0.82526333 -7.0218085 -0.06321109 0 0 Z " fill="#56A1D7" transform="translate(217.779296875,155.35302734375)"/>
<path d="M0 0 C1.26481201 -0.01253311 2.52962402 -0.02506622 3.83276367 -0.03797913 C5.20492587 -0.02571038 6.57707819 -0.0122903 7.94921875 0.00219727 C9.36499209 0.001368 10.78076532 -0.00109358 12.1965332 -0.00511169 C15.15898737 -0.0079656 18.12068377 0.00668972 21.08300781 0.03417969 C24.87291214 0.06826339 28.6614621 0.0622413 32.45143127 0.04351711 C35.37352713 0.03292867 38.29530994 0.04190134 41.21737671 0.05690193 C42.61436024 0.06207078 44.01137665 0.06161769 45.40835571 0.05535698 C47.36342616 0.04988362 49.31851262 0.07317922 51.2734375 0.09765625 C52.93959106 0.10695412 52.93959106 0.10695412 54.6394043 0.11643982 C58.34234952 0.75226616 60.02922445 1.96022329 62.63671875 4.63110352 C63.17284914 8.38401627 63.16148768 10.63404255 61.38671875 14.00610352 C57.96049651 17.18759559 53.93030762 16.74496421 49.44702148 16.70043945 C48.19569931 16.69002625 46.94437714 16.67961304 45.65513611 16.66888428 C44.29352112 16.65163556 42.93191321 16.63382002 41.5703125 16.61547852 C40.17074121 16.59877826 38.77116947 16.58211622 37.37159729 16.56549072 C34.44207926 16.52907108 31.51266895 16.4878506 28.58325195 16.4440918 C24.82836751 16.38900468 21.07354599 16.35252464 17.3184042 16.32046127 C14.4297861 16.29261522 11.54146461 16.25156407 8.65306282 16.20685577 C7.2684318 16.18765791 5.88372383 16.17336319 4.49899101 16.16405487 C2.56484802 16.14974156 0.63088852 16.11501488 -1.30297852 16.0793457 C-2.40344009 16.06522644 -3.50390167 16.05110718 -4.63771057 16.03656006 C-7.36328125 15.63110352 -7.36328125 15.63110352 -9.17955017 14.31402588 C-11.20153354 11.43935182 -11.36328125 9.09777985 -11.36328125 5.63110352 C-7.87773743 1.17593917 -5.60626322 0.00485419 0 0 Z " fill="#55A1D7" transform="translate(212.36328125,397.368896484375)"/>
</svg>
